<svg width="48" height="48" viewBox="0 0 48 48" fill="none" xmlns="http://www.w3.org/2000/svg">
<path d="M29.0199 35.0599C29.8111 35.0599 30.5844 35.2945 31.2422 35.7341C31.9 36.1736 32.4127 36.7983 32.7155 37.5292C33.0182 38.2601 33.0974 39.0644 32.9431 39.8403C32.7887 40.6162 32.4078 41.329 31.8484 41.8884C31.289 42.4478 30.5762 42.8287 29.8003 42.9831C29.0244 43.1374 28.2201 43.0582 27.4892 42.7555C26.7583 42.4527 26.1336 41.94 25.6941 41.2822C25.2545 40.6244 25.0199 39.8511 25.0199 39.0599V35.0599H29.0199ZM18.9799 25.0199C20.0408 25.0199 21.0582 25.4414 21.8084 26.1915C22.5585 26.9417 22.9799 27.9591 22.9799 29.0199V39.0199C22.9799 40.0808 22.5585 41.0982 21.8084 41.8484C21.0582 42.5985 20.0408 43.0199 18.9799 43.0199C17.9191 43.0199 16.9017 42.5985 16.1515 41.8484C15.4014 41.0982 14.9799 40.0808 14.9799 39.0199V29.0199C14.9799 27.9591 15.4014 26.9417 16.1515 26.1915C16.9017 25.4414 17.9191 25.0199 18.9799 25.0199ZM12.9399 25.0199V29.0199C12.9399 29.8111 12.7053 30.5844 12.2658 31.2422C11.8263 31.9 11.2016 32.4127 10.4707 32.7155C9.73977 33.0182 8.93551 33.0974 8.15958 32.9431C7.38366 32.7887 6.67093 32.4078 6.11152 31.8484C5.55211 31.289 5.17114 30.5762 5.0168 29.8003C4.86246 29.0244 4.94167 28.2201 5.24443 27.4892C5.54718 26.7583 6.05987 26.1336 6.71766 25.6941C7.37546 25.2545 8.14882 25.0199 8.93994 25.0199H12.9399ZM39.0599 25.0199C40.1208 25.0199 41.1382 25.4414 41.8884 26.1915C42.6385 26.9417 43.0599 27.9591 43.0599 29.0199C43.0599 30.0808 42.6385 31.0982 41.8884 31.8484C41.1382 32.5985 40.1208 33.0199 39.0599 33.0199H29.0599C27.9991 33.0199 26.9817 32.5985 26.2315 31.8484C25.4814 31.0982 25.0599 30.0808 25.0599 29.0199C25.0599 27.9591 25.4814 26.9417 26.2315 26.1915C26.9817 25.4414 27.9991 25.0199 29.0599 25.0199H39.0599ZM39.0599 14.9799C40.1208 14.9799 41.1382 15.4014 41.8884 16.1515C42.6385 16.9017 43.0599 17.9191 43.0599 18.9799C43.0599 20.0408 42.6385 21.0582 41.8884 21.8084C41.1382 22.5585 40.1208 22.9799 39.0599 22.9799H35.0599V18.9799C35.0599 17.9191 35.4814 16.9017 36.2315 16.1515C36.9817 15.4014 37.9991 14.9799 39.0599 14.9799ZM29.0199 4.97994C30.0808 4.97994 31.0982 5.40137 31.8484 6.15151C32.5985 6.90166 33.0199 7.91908 33.0199 8.97994V18.9799C33.0199 20.0408 32.5985 21.0582 31.8484 21.8084C31.0982 22.5585 30.0808 22.9799 29.0199 22.9799C27.9591 22.9799 26.9417 22.5585 26.1915 21.8084C25.4414 21.0582 25.0199 20.0408 25.0199 18.9799V8.97994C25.0199 7.91908 25.4414 6.90166 26.1915 6.15151C26.9417 5.40137 27.9591 4.97994 29.0199 4.97994ZM18.9799 14.9599C20.0408 14.9599 21.0582 15.3814 21.8084 16.1315C22.5585 16.8817 22.9799 17.8991 22.9799 18.9599C22.9799 20.0208 22.5585 21.0382 21.8084 21.7884C21.0582 22.5385 20.0408 22.9599 18.9799 22.9599H8.97994C7.91908 22.9599 6.90166 22.5385 6.15152 21.7884C5.40137 21.0382 4.97994 20.0208 4.97994 18.9599C4.97994 17.8991 5.40137 16.8817 6.15152 16.1315C6.90166 15.3814 7.91908 14.9599 8.97994 14.9599H18.9799ZM18.9799 4.93994C20.0408 4.93994 21.0582 5.36137 21.8084 6.11151C22.5585 6.86166 22.9799 7.87908 22.9799 8.93994V12.9399H18.9799C17.9191 12.9399 16.9017 12.5185 16.1515 11.7684C15.4014 11.0182 14.9799 10.0008 14.9799 8.93994C14.9799 7.87908 15.4014 6.86166 16.1515 6.11151C16.9017 5.36137 17.9191 4.93994 18.9799 4.93994Z" fill="black" fill-opacity="0.9"/>
</svg>
